<?xml version="1.0" standalone="no"?>
<!DOCTYPE svg PUBLIC "-//W3C//DTD SVG 20010904//EN"
 "http://www.w3.org/TR/2001/REC-SVG-20010904/DTD/svg10.dtd">
<svg version="1.0" xmlns="http://www.w3.org/2000/svg"
 width="647.000000pt" height="427.000000pt" viewBox="0 0 647.000000 427.000000"
 preserveAspectRatio="xMidYMid meet">
<metadata>
Created by potrace 1.16, written by Peter Selinger 2001-2019
</metadata>
<g transform="translate(0.000000,427.000000) scale(0.100000,-0.100000)"
fill="#000000" stroke="none">
<path d="M0 2135 l0 -2135 3235 0 3235 0 0 2135 0 2135 -3235 0 -3235 0 0
-2135z m3511 1526 c286 -61 535 -192 739 -387 115 -111 184 -197 186 -232 1
-24 -1 -23 -30 13 -65 82 -76 87 -26 13 46 -67 53 -83 55 -132 1 -31 1 -55 0
-54 -2 2 -36 53 -76 113 -163 244 -423 441 -704 534 -304 100 -551 104 -855
14 -263 -78 -543 -272 -708 -490 -30 -40 -58 -73 -61 -73 -6 0 -7 51 -2 82 1
3 30 41 64 85 220 272 536 460 868 517 52 8 105 18 119 20 63 11 339 -4 431
-23z m-86 -619 l40 -7 3 -54 3 -54 -31 27 -32 26 -187 0 c-104 0 -216 3 -250
6 -55 6 -61 9 -61 30 0 20 6 23 43 27 77 7 431 6 472 -1z m-465 -485 c23 -14
58 -17 208 -17 98 0 207 -3 241 -6 56 -6 61 -9 61 -30 0 -24 -1 -24 -122 -26
-161 -2 -398 2 -420 8 -15 4 -18 16 -17 67 0 49 2 58 10 41 6 -11 23 -28 39
-37z m550 -156 c24 -7 25 -11 28 -94 l3 -87 -283 0 c-156 0 -293 3 -305 6 -21
6 -23 13 -23 65 l0 59 291 0 c228 0 290 3 287 13 -4 9 -73 13 -291 15 -246 2
-287 4 -287 17 0 13 38 15 278 14 152 -1 288 -4 302 -8z m-350 -446 l0 -76 30
16 c85 44 183 -18 197 -124 7 -48 -25 -122 -61 -146 -40 -26 -108 -31 -140
-10 -15 10 -26 13 -26 6 0 -6 -19 -11 -45 -11 l-45 0 0 210 0 210 45 0 45 0 0
-75z m-555 25 c32 -20 65 -60 65 -78 0 -16 -79 -32 -88 -18 -14 24 -57 46 -89
46 -32 0 -33 2 -33 39 0 22 5 41 12 43 22 8 99 -11 133 -32z m1101 16 c47 -22
82 -57 96 -97 5 -12 -4 -18 -38 -26 -39 -9 -46 -8 -55 8 -13 25 -61 49 -96 49
-38 0 -91 -34 -104 -68 -19 -48 -5 -113 30 -144 46 -41 111 -40 153 3 27 26
36 30 65 24 41 -7 51 -27 29 -60 -46 -70 -164 -104 -250 -71 -77 30 -136 114
-136 197 0 14 7 46 15 71 40 115 175 168 291 114z m294 -26 c0 -39 -1 -40 -35
-40 -35 0 -35 0 -35 -45 0 -45 0 -45 35 -45 32 0 35 -2 35 -30 0 -28 -3 -30
-35 -30 -35 0 -35 0 -35 -45 0 -45 0 -45 35 -45 34 0 35 -1 35 -40 l0 -40 -80
0 -80 0 0 200 0 200 80 0 80 0 0 -40z m-1100 -75 c17 -9 30 -11 30 -5 0 5 20
10 45 10 l45 0 0 -145 0 -145 -45 0 c-25 0 -45 5 -45 10 0 6 -13 4 -30 -5 -90
-47 -193 31 -192 145 1 50 27 98 72 127 38 27 79 29 120 8z m-213 -121 c-10
-95 -73 -154 -179 -169 l-48 -7 0 40 c0 39 1 40 42 46 44 7 88 39 88 63 0 9
-15 13 -50 13 l-50 0 0 35 0 35 101 0 102 0 -6 -56z m683 -304 c28 -28 27 -87
-2 -117 -17 -18 -32 -23 -70 -23 l-48 0 0 80 0 80 50 0 c37 0 55 -5 70 -20z
m1065 -33 c-2 -38 -10 -65 -29 -95 -14 -23 -26 -45 -26 -48 0 -4 -25 -38 -56
-76 -110 -134 -254 -252 -416 -342 -69 -38 -96 -44 -34 -8 19 11 43 28 53 37
10 9 56 43 103 77 135 97 260 220 297 293 13 25 5 21 -43 -25 -31 -30 -49 -43
-38 -29 10 15 44 60 75 100 30 41 68 95 83 122 15 26 29 47 30 47 2 0 2 -24 1
-53z m-65 -224 c-14 -16 -65 -70 -114 -120 -50 -51 -86 -93 -79 -93 6 0 64 55
129 123 89 92 106 106 69 58 -234 -300 -660 -518 -1045 -536 -77 -3 -94 -2
-65 5 22 5 58 9 80 10 22 0 69 7 105 15 l65 13 -65 -4 -65 -4 80 15 c44 8 91
12 105 9 21 -4 22 -3 5 4 -17 8 -14 10 18 16 20 4 43 4 50 0 6 -4 9 -3 4 1 -4
5 26 21 68 36 213 78 391 193 555 360 112 114 149 148 100 92z"/>
<path d="M3210 1823 c-51 -19 -67 -81 -30 -121 44 -47 114 -14 114 54 0 48
-42 82 -84 67z"/>
<path d="M2819 1811 c-29 -23 -31 -81 -4 -111 40 -44 115 -9 115 53 0 38 -7
50 -37 66 -30 16 -47 14 -74 -8z"/>
</g>
</svg>
