<?xml version="1.0" standalone="no"?>
<!DOCTYPE svg PUBLIC "-//W3C//DTD SVG 20010904//EN"
 "http://www.w3.org/TR/2001/REC-SVG-20010904/DTD/svg10.dtd">
<svg version="1.0" xmlns="http://www.w3.org/2000/svg"
 width="961.000000pt" height="413.000000pt" viewBox="0 0 961.000000 413.000000"
 preserveAspectRatio="xMidYMid meet">
<metadata>
Created by potrace 1.16, written by Peter Selinger 2001-2019
</metadata>
<g transform="translate(0.000000,413.000000) scale(0.100000,-0.100000)"
fill="#000000" stroke="none">
<path d="M0 2065 l0 -2065 4805 0 4805 0 0 2065 0 2065 -4805 0 -4805 0 0
-2065z m4846 1464 c24 -6 45 -14 45 -18 4 -22 3 -221 -1 -220 -3 0 -19 19 -35
42 -17 22 -46 50 -65 61 -34 20 -52 21 -497 24 l-463 3 0 59 0 60 486 0 c324
0 500 -4 530 -11z m-903 -928 l47 -24 445 -3 c245 -2 449 -5 453 -8 5 -3 8
-26 7 -53 l-1 -48 -224 -7 c-274 -8 -763 0 -807 14 l-33 10 0 120 0 120 33
-48 c22 -31 51 -57 80 -73z m1058 -288 c11 -9 14 -45 14 -170 l0 -158 -95 -8
c-118 -10 -1019 -4 -1042 7 -16 7 -18 23 -18 122 l0 114 555 0 c305 0 555 3
555 7 0 3 -7 15 -17 25 -15 17 -46 18 -555 18 l-538 0 0 30 0 31 563 -3 c415
-2 568 -6 578 -15z m-661 -790 c0 -149 1 -155 18 -140 32 29 90 47 155 47 262
0 394 -342 208 -538 -31 -32 -107 -68 -174 -82 -140 -29 -288 34 -350 148 -38
70 -47 151 -47 455 l0 267 95 0 95 0 0 -157z m-1120 28 l35 -7 3 -92 c3 -87 2
-92 -15 -84 -26 14 -210 35 -247 28 l-32 -6 1 82 c0 80 1 83 25 90 28 7 175 1
230 -11z m2243 -1 l37 -11 0 -89 c0 -50 -2 -90 -4 -90 -3 0 -35 7 -73 16 -95
22 -242 16 -280 -12 -65 -49 -87 -120 -72 -231 9 -64 31 -99 80 -128 29 -17
51 -20 154 -19 88 0 130 4 158 17 l37 16 0 -93 0 -93 -57 -11 c-270 -51 -432
7 -520 185 -37 74 -38 81 -37 178 1 157 42 240 158 320 76 52 137 66 271 60
61 -2 127 -9 148 -15z m427 -70 l0 -80 -50 0 -50 0 0 -65 0 -65 50 0 50 0 0
-85 0 -85 -50 0 -50 0 0 -60 0 -60 50 0 50 0 0 -85 0 -85 -140 0 -140 0 0 375
0 375 140 0 140 0 0 -80z m-2027 -84 c61 -30 116 -88 143 -152 11 -25 20 -87
25 -169 4 -73 16 -159 27 -197 l19 -68 -93 0 -94 0 -11 46 -12 45 -28 -31
c-81 -88 -245 -84 -352 9 -153 135 -138 399 29 497 78 46 113 55 205 51 69 -2
96 -8 142 -31z m-563 -335 l0 -208 -62 -18 c-71 -20 -210 -34 -248 -26 -24 6
-25 9 -25 89 l-1 82 78 0 78 0 0 60 0 59 -77 3 -78 3 -1 75 c0 41 1 78 3 83 2
4 78 7 169 7 l164 0 0 -209z"/>
<path d="M4402 1240 c-58 -36 -77 -113 -46 -190 20 -50 56 -70 126 -70 93 0
137 45 138 141 0 43 -5 63 -22 84 -43 55 -136 71 -196 35z"/>
<path d="M3635 1246 c-98 -43 -96 -224 3 -257 52 -17 115 -14 151 7 80 47 74
206 -9 249 -35 18 -104 19 -145 1z"/>
</g>
</svg>
