<?xml version="1.0" standalone="no"?>
<!DOCTYPE svg PUBLIC "-//W3C//DTD SVG 20010904//EN"
 "http://www.w3.org/TR/2001/REC-SVG-20010904/DTD/svg10.dtd">
<svg version="1.0" xmlns="http://www.w3.org/2000/svg"
 width="650.000000pt" height="427.000000pt" viewBox="0 0 650.000000 427.000000"
 preserveAspectRatio="xMidYMid meet">

<g transform="translate(0.000000,427.000000) scale(0.100000,-0.100000)"
fill="#000000" stroke="none">
<path d="M0 2135 l0 -2135 3250 0 3250 0 0 2135 0 2135 -3250 0 -3250 0 0
-2135z m2113 584 l37 -10 0 -86 0 -86 -29 41 c-18 24 -43 44 -63 50 -18 6
-175 12 -356 14 -245 3 -325 7 -331 17 -6 9 -7 55 -2 69 3 8 712 0 744 -9z
m1687 -373 l0 -103 48 24 c53 28 98 26 161 -7 75 -38 121 -146 101 -237 -30
-135 -168 -208 -273 -145 l-37 21 0 -20 c0 -20 -4 -21 -52 -15 -29 3 -59 6
-65 6 -10 0 -13 65 -13 290 l0 290 65 0 65 0 0 -104z m-814 59 c45 -18 99 -67
121 -108 8 -16 13 -30 11 -31 -2 -2 -27 -9 -57 -18 l-54 -14 -31 33 c-25 27
-44 36 -93 46 l-63 12 0 52 c0 41 4 52 18 55 26 6 104 -8 148 -27z m1513 24
c68 -14 136 -60 171 -116 17 -26 30 -50 30 -55 0 -7 -25 -15 -102 -33 -21 -5
-27 -3 -33 15 -11 34 -77 72 -128 72 -103 2 -172 -74 -164 -180 9 -122 128
-188 238 -132 22 12 45 32 51 46 10 20 17 24 37 19 75 -18 101 -27 101 -33 0
-19 -60 -101 -88 -121 -70 -50 -190 -67 -279 -41 -66 20 -134 78 -167 143 -24
47 -29 70 -30 130 0 142 79 247 214 283 57 16 87 17 149 3z m468 -59 l0 -50
-49 0 -48 0 0 -60 0 -60 48 0 49 0 -1 -47 -1 -48 -47 -3 -48 -3 0 -60 0 -59
49 0 49 0 0 -55 0 -55 -109 0 -109 0 0 275 0 275 109 0 109 0 -1 -50z m-1519
-111 c26 -15 32 -16 32 -4 0 12 15 15 65 15 l65 0 0 -200 0 -200 -65 0 c-50 0
-65 3 -65 15 0 11 -7 10 -35 -6 -85 -50 -205 -10 -254 84 -95 185 86 393 257
296z m-308 -139 c0 -146 -95 -244 -250 -257 l-70 -6 0 59 0 59 43 0 c57 1 97
19 125 58 l22 32 -75 3 -75 3 0 54 0 55 140 0 140 0 0 -60z m-1671 -89 c22 -7
151 -11 357 -11 l324 0 0 -39 0 -40 -193 -3 c-242 -4 -573 4 -583 15 -4 4 -8
43 -8 87 l-1 79 35 -38 c19 -22 50 -44 69 -50z m752 -202 c14 -7 16 -27 15
-126 l-1 -118 -417 0 c-229 0 -420 4 -424 8 -5 4 -8 44 -9 87 l-1 80 206 1
c113 0 297 0 408 -1 193 -2 204 -1 200 17 -3 17 -26 18 -408 23 -351 4 -405 7
-405 20 0 13 32 16 205 20 264 6 610 1 631 -11z"/>
<path d="M3845 2158 c-33 -19 -44 -41 -44 -88 0 -25 5 -52 12 -61 34 -44 102
-51 144 -15 24 21 28 32 28 76 0 44 -4 55 -28 76 -31 26 -78 31 -112 12z"/>
<path d="M3316 2144 c-21 -21 -26 -36 -26 -74 0 -38 5 -53 26 -74 43 -43 129
-31 153 21 24 53 7 123 -36 142 -42 19 -88 13 -117 -15z"/>
</g>
</svg>
