<?xml version="1.0" standalone="no"?>
<!DOCTYPE svg PUBLIC "-//W3C//DTD SVG 20010904//EN"
 "http://www.w3.org/TR/2001/REC-SVG-20010904/DTD/svg10.dtd">
<svg version="1.0" xmlns="http://www.w3.org/2000/svg"
 width="886.000000pt" height="360.000000pt" viewBox="0 0 886.000000 360.000000"
 preserveAspectRatio="xMidYMid meet">

<g transform="translate(0.000000,360.000000) scale(0.100000,-0.100000)"
fill="#000000" stroke="none">
<path d="M235 3416 c-40 -17 -84 -63 -101 -103 -12 -27 -14 -286 -14 -1505 0
-1460 0 -1472 20 -1514 12 -24 39 -54 62 -70 l41 -29 4186 0 4186 0 36 24 c20
14 47 41 60 60 l24 35 3 1470 c1 809 0 1486 -3 1504 -8 42 -59 100 -110 123
-38 18 -197 19 -4200 18 -3427 0 -4165 -2 -4190 -13z m3145 -1591 l0 -1485
-30 0 -30 0 0 1485 0 1485 30 0 30 0 0 -1485z m-2290 566 c0 -40 -4 -51 -19
-56 -11 -3 -27 -18 -38 -33 -17 -25 -18 -60 -21 -492 -3 -498 -1 -532 44 -552
21 -10 24 -18 24 -61 l0 -50 -54 6 c-147 15 -312 149 -386 313 -49 107 -63
199 -57 353 6 153 25 229 85 345 77 147 253 275 380 276 l42 0 0 -49z m245 20
c33 -10 75 -25 92 -32 32 -13 34 -12 71 24 45 44 78 48 92 11 6 -14 10 -112
10 -217 0 -211 -6 -240 -52 -245 -32 -4 -52 23 -74 93 -21 73 -90 189 -135
229 -44 40 -73 54 -134 65 l-40 7 -1 48 0 48 56 -5 c31 -4 83 -15 115 -26z
m945 -23 c0 -50 -3 -54 -32 -68 -18 -8 -41 -28 -52 -43 -20 -28 -21 -40 -21
-487 0 -449 0 -459 21 -487 11 -15 35 -32 52 -38 31 -9 32 -11 32 -62 l0 -53
-54 0 c-164 0 -334 114 -416 278 -54 109 -65 170 -65 347 1 176 12 238 65 347
88 181 268 313 433 317 l37 1 0 -52z m217 11 c40 -16 82 -29 92 -29 11 0 29
15 41 35 24 39 57 46 84 19 14 -13 16 -48 16 -232 0 -237 -5 -262 -55 -262
-30 0 -48 26 -70 105 -37 133 -134 262 -214 286 l-41 12 0 55 0 54 37 -7 c20
-3 69 -20 110 -36z m-873 -615 c24 -24 19 -53 -14 -82 l-30 -26 0 -177 0 -178
-37 -30 c-89 -73 -258 -141 -352 -141 l-41 0 0 48 c0 42 3 49 30 64 17 9 35
29 40 43 12 33 13 345 1 364 -5 8 -29 22 -53 31 -36 13 -44 20 -46 45 -6 52 8
55 259 55 194 0 230 -2 243 -16z m1090 -270 c60 -60 -67 -260 -208 -329 -32
-15 -80 -30 -107 -33 l-49 -5 0 57 c0 52 2 56 24 56 38 0 164 68 191 104 13
17 36 59 51 91 15 33 32 63 38 67 18 12 44 9 60 -8z m3024 -514 c-2 -44 -2
-80 0 -80 2 0 15 9 29 20 14 11 41 20 60 20 83 0 128 -60 127 -171 0 -83 -23
-125 -84 -157 -39 -20 -55 -23 -117 -19 -40 3 -77 8 -83 12 -6 4 -10 87 -10
231 l0 224 41 0 41 0 -4 -80z m1622 51 c20 -5 26 -14 28 -43 l3 -37 -33 10
c-55 15 -106 11 -128 -11 -11 -11 -20 -24 -20 -29 0 -16 46 -47 97 -66 72 -27
101 -51 113 -93 11 -44 -1 -101 -28 -125 -48 -43 -152 -59 -234 -36 -36 9 -38
12 -38 51 0 34 3 39 18 33 89 -34 176 -30 194 11 10 22 8 28 -13 48 -13 13
-50 33 -82 46 -74 29 -107 67 -107 124 0 50 27 91 74 112 33 14 114 17 156 5z
m773 -2 c35 -9 37 -12 37 -49 l0 -39 -46 16 c-61 21 -122 12 -151 -22 -45 -52
-54 -156 -19 -224 17 -33 61 -54 102 -49 28 3 29 6 32 61 l3 57 -36 0 c-32 0
-35 2 -35 30 l0 30 75 0 75 0 0 -114 0 -114 -44 -11 c-172 -43 -276 35 -276
209 0 110 35 174 115 211 45 21 111 24 168 8z m-1523 -21 c68 -35 92 -88 88
-199 -5 -150 -60 -201 -225 -207 l-93 -4 0 216 0 216 93 0 c76 0 101 -4 137
-22z m1170 -8 c0 -29 -2 -30 -45 -30 l-45 0 0 -155 0 -155 45 0 c43 0 45 -1
45 -30 l0 -30 -135 0 -135 0 0 30 c0 29 2 30 45 30 l45 0 0 155 0 155 -45 0
c-43 0 -45 1 -45 30 l0 30 135 0 135 0 0 -30z m619 -120 l66 -145 3 148 3 147
34 0 35 0 0 -215 0 -215 -49 0 -48 0 -69 152 -69 153 -3 -153 -3 -152 -34 0
-35 0 0 216 0 215 51 -3 52 -3 66 -145z m-2888 37 c41 -27 69 -79 69 -129 l0
-38 -110 0 c-109 0 -110 0 -110 -24 0 -13 9 -34 19 -47 16 -20 29 -24 73 -24
29 0 65 3 81 8 25 7 27 5 27 -22 0 -26 -5 -31 -37 -40 -91 -26 -192 0 -225 56
-54 93 -16 237 72 272 45 18 105 13 141 -12z m-558 -15 c3 -16 9 -64 13 -106
4 -42 10 -78 13 -81 4 -2 15 25 25 61 18 62 19 64 52 64 32 0 33 -2 56 -71 22
-68 23 -70 29 -40 4 18 10 70 14 117 l7 84 39 0 c36 0 39 -2 34 -22 -2 -13
-12 -75 -20 -138 -25 -183 -20 -170 -70 -170 l-44 0 -23 71 -23 72 -21 -69
-22 -69 -45 -3 c-52 -4 -47 -17 -72 168 -8 63 -18 125 -20 138 -5 20 -2 22 34
22 34 0 39 -3 44 -28z m2057 -127 l0 -35 -105 0 -105 0 0 35 0 35 105 0 105 0
0 -35z"/>
<path d="M5767 862 c-26 -27 -28 -33 -25 -108 l3 -79 33 -3 c25 -3 39 3 62 27
26 25 30 37 30 83 0 101 -48 138 -103 80z"/>
<path d="M6460 834 l0 -157 46 6 c60 6 91 37 103 101 23 126 -21 206 -114 206
l-35 0 0 -156z"/>
<path d="M5380 880 c-38 -38 -27 -50 45 -50 57 0 65 2 65 18 0 47 -73 69 -110
32z"/>
</g>
</svg>
