<?xml version="1.0" standalone="no"?>
<!DOCTYPE svg PUBLIC "-//W3C//DTD SVG 20010904//EN"
 "http://www.w3.org/TR/2001/REC-SVG-20010904/DTD/svg10.dtd">
<svg version="1.0" xmlns="http://www.w3.org/2000/svg"
 width="564.000000pt" height="564.000000pt" viewBox="0 0 564.000000 564.000000"
 preserveAspectRatio="xMidYMid meet">
<metadata>
Created by potrace 1.16, written by Peter Selinger 2001-2019
</metadata>
<g transform="translate(0.000000,564.000000) scale(0.100000,-0.100000)"
fill="#000000" stroke="none">
<path d="M2990 5120 c-25 -5 -25 -5 -25 -120 l0 -115 -120 -11 c-66 -6 -151
-17 -190 -23 -77 -13 -387 -100 -465 -131 -133 -52 -400 -205 -401 -228 0 -10
-3 -12 -5 -5 -13 32 -311 -220 -419 -354 -88 -109 -112 -146 -154 -235 -56
-119 -55 -161 3 -123 41 27 132 21 217 -15 41 -17 78 -35 83 -40 4 -4 28 7 52
25 64 49 146 78 238 83 70 4 79 7 84 26 6 20 6 20 12 -4 4 -19 16 -28 55 -38
60 -17 105 -46 169 -106 26 -25 52 -43 57 -40 5 3 6 -2 3 -10 -9 -23 13 -20
34 5 37 45 175 91 315 104 53 5 67 10 68 23 0 13 2 13 8 -3 7 -16 25 -23 81
-33 85 -15 217 -66 266 -103 8 -6 11 -267 13 -886 1 -483 5 -881 7 -885 3 -4
-4 -8 -16 -8 -37 0 -44 -43 -19 -119 28 -85 37 -94 83 -86 60 12 83 37 88 97
6 71 -4 96 -39 100 -22 2 -29 10 -35 38 -5 19 -8 202 -7 405 1 204 2 585 2
847 l0 477 71 24 c193 68 287 89 391 89 112 1 191 -15 277 -54 l68 -31 45 24
c35 19 45 30 45 49 0 19 2 22 9 10 6 -8 7 -18 4 -24 -4 -6 1 -6 13 -2 103 42
131 48 209 42 68 -5 92 -12 162 -47 85 -44 96 -44 125 -4 4 6 8 7 8 3 0 -4 16
3 35 16 19 13 64 29 100 36 72 14 126 5 196 -30 51 -27 59 -25 59 10 0 80 -86
253 -182 365 -96 113 -295 290 -393 351 -112 69 -278 166 -300 174 -20 8 -24
6 -28 -13 -4 -20 -4 -19 -6 4 -1 21 -11 30 -58 52 -62 28 -313 117 -330 117
-3 0 -1 -10 2 -21 5 -15 4 -19 -4 -15 -6 4 -11 15 -11 24 0 16 -63 42 -135 57
-11 2 -53 11 -93 19 -40 9 -117 19 -172 22 l-98 7 -1 66 c-1 73 -10 150 -20
166 -3 6 -17 8 -31 5z"/>
<path d="M1428 3342 l-47 -3 -4 -47 -3 -47 -2 48 -2 48 -87 -3 -88 -3 0 -142
c0 -91 -3 -143 -10 -144 -5 -1 -28 -2 -50 -3 -35 -1 -40 -4 -43 -27 -3 -25 0
-26 40 -27 24 0 46 0 50 -1 4 -1 0 -17 -8 -36 -8 -19 -14 -37 -13 -40 0 -3 -4
-29 -10 -58 -33 -175 -7 -411 57 -507 31 -46 41 -195 25 -385 -7 -93 -15 -179
-16 -189 -1 -13 17 -32 62 -63 35 -24 66 -41 69 -38 3 2 4 28 3 57 -1 33 3 54
11 60 10 6 10 8 1 8 -7 0 -13 7 -13 15 0 8 4 15 9 15 13 0 23 -53 15 -84 -4
-19 -2 -27 10 -32 9 -3 16 -11 16 -16 0 -7 -5 -6 -13 1 -11 9 -13 4 -12 -26 2
-30 9 -41 43 -64 22 -15 51 -33 64 -40 l23 -12 -24 27 c-14 14 -30 26 -36 26
-12 0 -14 68 -2 87 3 5 -1 22 -9 37 -16 32 -19 49 -4 26 5 -8 10 -10 10 -4 0
6 -7 17 -15 24 -8 7 -13 16 -10 20 3 5 -4 11 -15 15 -11 3 -20 13 -20 20 0 8
-7 18 -16 23 -23 13 -28 128 -5 137 13 5 13 7 1 15 -8 5 -19 6 -25 2 -5 -3 -4
2 4 11 11 14 11 23 3 42 -7 14 -16 25 -22 25 -5 0 -10 7 -10 16 0 8 5 12 11 8
8 -4 9 3 4 25 -3 17 -3 41 1 53 7 20 9 18 15 -17 l6 -40 2 49 c1 38 -2 47 -13
43 -11 -5 -13 0 -6 23 6 21 5 30 -6 34 -8 3 -14 11 -14 18 0 9 3 9 10 -2 8
-12 10 -12 16 3 3 9 15 17 26 17 10 0 16 -4 13 -10 -4 -6 1 -7 11 -3 13 5 15
3 9 -8 -5 -8 -4 -11 1 -6 5 5 9 16 9 25 0 11 7 16 19 14 12 -2 16 1 11 10 -6
10 -5 10 5 1 17 -16 40 -5 41 21 1 16 2 17 6 4 4 -18 33 -26 33 -10 0 5 -7 29
-16 55 -11 34 -13 51 -5 66 14 25 14 34 1 26 -5 -3 -10 -1 -10 6 0 7 -12 26
-27 42 -24 24 -28 37 -28 87 0 76 24 106 78 96 19 -4 38 -14 41 -23 4 -9 13
-70 21 -137 8 -67 23 -157 35 -200 11 -44 20 -88 20 -99 0 -11 4 -34 9 -51 19
-63 31 -112 35 -154 3 -23 10 -50 15 -60 5 -9 19 -55 31 -102 25 -101 43 -165
65 -240 9 -30 20 -72 24 -94 5 -21 13 -41 17 -45 5 -3 11 -17 12 -31 2 -14 9
-31 14 -38 10 -11 13 -28 17 -76 0 -11 4 -16 8 -13 3 4 12 2 19 -4 15 -12 19
-5 26 36 3 15 9 9 26 -25 12 -25 22 -40 22 -33 0 8 11 10 35 6 24 -4 35 -2 35
6 0 7 10 11 23 9 15 -2 22 2 21 12 -1 19 31 23 45 6 14 -17 81 -9 74 10 -3 8
-2 22 1 31 5 12 9 14 18 5 7 -7 18 -12 25 -12 18 0 16 45 -2 60 -8 7 -15 21
-15 31 0 10 -5 21 -10 24 -8 5 -7 11 1 21 9 12 9 13 -3 9 -10 -4 -18 5 -26 31
-6 21 -9 41 -6 46 3 4 1 8 -3 8 -5 0 -14 21 -22 48 -7 26 -17 58 -23 72 -5 14
-10 26 -9 27 0 2 -6 21 -14 44 -17 47 -19 71 -5 49 16 -24 12 4 -10 90 -19 73
-19 74 0 50 10 -14 26 -54 35 -90 9 -36 21 -73 26 -82 12 -23 11 -48 -1 -48
-5 0 -10 -4 -10 -10 0 -5 3 -9 8 -9 22 4 33 -3 30 -18 -1 -10 5 -34 14 -53 24
-54 31 -80 19 -80 -6 0 -11 -8 -11 -17 0 -14 3 -14 16 5 12 18 13 31 5 79 -6
31 -16 60 -22 64 -7 4 -9 14 -6 23 4 9 1 16 -5 16 -6 0 -9 3 -5 6 3 4 -1 24
-10 46 -8 21 -13 41 -11 44 3 2 -4 39 -14 82 -35 137 -41 171 -33 189 5 10 7
23 6 29 -2 13 53 24 122 24 28 0 47 5 47 11 0 7 -12 10 -30 7 -16 -3 -30 -1
-30 2 0 4 -36 6 -80 3 -44 -2 -80 0 -80 5 0 5 -17 8 -37 6 -20 -1 -42 0 -47 4
-16 9 -46 10 -52 1 -3 -5 -14 1 -24 11 -11 11 -28 20 -38 20 -35 0 -53 22 -46
57 4 18 9 31 13 29 3 -2 7 7 7 20 1 13 -2 24 -7 24 -5 0 -9 8 -9 18 -1 14 -4
12 -21 -8 -11 -14 -26 -33 -34 -42 -8 -10 -16 -29 -18 -42 -5 -42 -17 -42 -17
-1 0 43 -28 127 -40 120 -4 -3 -10 13 -14 35 -3 22 -10 40 -14 40 -10 0 -9 36
0 46 3 3 2 20 -3 37 -6 22 -5 33 4 39 8 5 6 8 -8 8 -14 0 -16 3 -7 8 6 5 11
19 10 33 -2 31 55 131 94 164 16 14 38 25 49 25 11 0 22 7 25 15 4 8 11 12 16
9 6 -4 5 -10 -3 -15 -9 -6 -10 -9 -2 -9 6 0 18 7 27 15 8 8 24 15 37 15 18 0
19 2 9 15 -8 10 -9 15 -2 15 6 0 9 6 6 14 -4 10 20 15 113 21 65 4 129 8 143
10 14 2 44 4 68 4 35 1 42 4 42 20 0 19 -9 20 -207 21 -113 0 -208 2 -211 4
-2 3 -5 35 -7 73 -1 37 -6 100 -10 139 l-7 71 -192 -1 c-105 -1 -212 -2 -238
-4z"/>
<path d="M3874 2818 l-50 -53 -70 -2 c-100 -3 -114 -8 -115 -41 l-1 -27 -7 26
-6 27 -69 -18 c-79 -21 -146 -49 -146 -62 0 -4 -8 -8 -17 -8 -21 0 -93 -66
-93 -84 0 -31 324 -126 432 -126 58 0 81 -14 112 -69 17 -27 36 -53 43 -55 17
-7 17 30 -1 82 l-14 40 75 12 c42 6 94 18 116 26 22 8 50 14 63 14 13 0 33 9
43 19 12 12 22 16 29 9 6 -6 37 0 86 16 42 14 85 26 96 26 15 0 40 37 28 43
-13 7 -138 50 -156 54 -19 5 -22 10 -17 31 5 21 3 23 -12 17 -45 -18 -71 -17
-195 14 -29 7 -38 6 -38 -4 0 -7 22 -19 50 -26 l50 -13 0 -63 c0 -40 -4 -63
-11 -63 -8 0 -10 17 -7 49 3 28 2 55 -2 61 -11 18 -81 25 -91 9 -7 -11 -9 -11
-9 4 0 9 -6 17 -12 18 -7 0 -22 2 -33 5 -11 2 -44 4 -72 5 -29 1 -53 5 -53 10
0 6 36 7 85 4 82 -5 115 5 59 19 -25 7 -26 9 -22 66 2 33 4 60 3 60 0 0 -23
-24 -51 -52z"/>
<path d="M2866 1784 c-4 -9 -1 -22 5 -30 6 -7 13 -26 15 -42 6 -36 -38 -202
-66 -250 l-22 -36 44 -38 c67 -59 101 -83 96 -67 -3 8 -1 24 3 37 6 16 5 22
-6 22 -18 0 -19 12 -3 28 10 10 10 15 -2 22 -13 9 -13 11 0 21 10 7 11 12 4
15 -7 3 -10 14 -7 25 4 13 1 19 -8 17 -10 -2 -14 7 -13 30 1 17 -2 32 -7 32
-5 0 -9 -5 -9 -12 0 -6 -3 -9 -6 -6 -7 8 18 91 30 100 6 4 7 10 3 14 -4 4 -2
13 4 20 6 8 7 14 0 18 -6 4 -8 13 -5 20 6 16 -22 76 -35 76 -5 0 -12 -7 -15
-16z"/>
<path d="M1121 1585 c-11 -36 -18 -78 -15 -93 6 -30 1 -72 -45 -367 -17 -105
-35 -244 -41 -310 -6 -66 -15 -147 -20 -180 -16 -106 -30 -266 -35 -410 -3
-77 -8 -159 -11 -182 l-6 -43 75 0 c51 0 77 4 80 13 4 9 6 9 6 0 1 -19 837
-19 844 0 4 9 6 9 6 0 1 -7 6 -13 12 -13 6 0 8 8 4 19 -3 11 -1 22 5 26 6 3
10 -3 10 -17 0 -19 2 -20 10 -8 8 12 12 13 19 2 7 -11 13 -9 30 9 11 12 24 19
28 16 3 -4 1 -7 -5 -7 -7 0 -12 -9 -12 -20 0 -24 28 -27 37 -4 8 22 -16 125
-34 146 -23 26 -10 47 29 45 28 -2 34 2 36 22 3 16 0 21 -8 16 -7 -4 -18 2
-26 14 -9 12 -19 19 -23 17 -13 -9 -28 9 -34 42 -5 25 -3 32 9 32 8 0 26 7 39
16 29 19 55 12 55 -13 0 -15 2 -15 9 -4 5 8 7 21 4 30 -4 13 -3 14 5 2 7 -10
7 -21 1 -34 -7 -12 -7 -34 0 -65 14 -69 23 -202 12 -177 -7 15 -10 5 -11 -40
-1 -52 -2 -58 -14 -42 -7 9 -16 35 -20 57 -3 22 -11 40 -17 40 -7 0 -9 -10 -4
-27 5 -16 8 -36 9 -45 0 -10 4 -18 8 -18 4 0 8 -7 8 -15 0 -11 12 -15 51 -15
l51 0 -6 43 c-3 23 -15 114 -26 202 -11 88 -22 178 -26 200 l-6 40 159 140
c180 159 553 529 553 549 0 21 -40 51 -64 48 -17 -2 -18 -1 -6 7 11 8 11 11 2
11 -7 0 -11 4 -8 9 8 12 -91 121 -109 121 -7 0 -27 -19 -44 -42 -38 -51 -309
-312 -335 -321 -16 -6 -18 -15 -14 -57 3 -28 1 -50 -3 -50 -5 0 -9 16 -9 35 0
19 -3 35 -6 35 -3 0 -42 -29 -87 -65 -73 -58 -107 -79 -93 -57 7 12 -20 141
-43 202 -12 30 -21 71 -21 90 0 35 -24 110 -45 143 -10 15 -14 9 -24 -39 -17
-86 -14 -108 16 -138 24 -24 28 -37 33 -114 4 -70 9 -93 28 -116 48 -61 26
-60 -80 4 -259 157 -300 185 -304 214 -8 56 -29 70 -100 67 -30 -1 -46 5 -59
19 -28 31 -37 24 -33 -27 2 -28 -1 -48 -7 -48 -6 0 -10 30 -11 67 -1 64 -14
98 -36 98 -5 0 -33 24 -61 52 -29 29 -43 45 -31 35 11 -9 23 -15 26 -12 3 3
11 -1 17 -9 7 -8 19 -12 27 -9 8 3 14 0 14 -7 0 -6 -5 -8 -12 -4 -7 4 -8 3 -4
-4 4 -7 16 -12 27 -12 11 0 18 -4 14 -9 -3 -5 -1 -12 5 -16 20 -12 9 23 -15
49 -14 15 -23 32 -20 37 3 5 0 7 -7 4 -7 -3 -22 6 -32 20 -10 14 -23 25 -29
25 -5 0 -4 -7 3 -15 7 -9 10 -18 6 -22 -3 -3 -6 -1 -6 5 0 7 -18 23 -39 38
-41 27 -59 53 -42 63 6 4 -3 12 -20 20 -16 7 -29 16 -29 21 0 8 61 -20 86 -40
10 -9 11 -16 4 -25 -7 -8 -4 -17 10 -30 18 -17 20 -17 14 -2 -3 9 -11 17 -17
17 -5 0 -3 8 6 18 15 16 10 23 -72 105 -49 48 -91 87 -94 87 -3 0 -15 -29 -26
-65z m1439 -519 c-3 -48 -1 -50 20 -25 10 13 19 18 20 12 0 -19 18 -15 23 5 2
9 4 -4 5 -29 0 -45 0 -46 -49 -70 -27 -13 -49 -30 -49 -37 0 -7 -5 -10 -12 -6
-7 4 -8 3 -4 -5 9 -14 -12 -43 -25 -35 -5 3 -9 -2 -9 -10 0 -8 -18 -27 -40
-43 -22 -15 -42 -36 -46 -45 -3 -10 -12 -18 -20 -18 -8 0 -14 -6 -14 -14 0 -8
-7 -17 -16 -20 -8 -3 -12 -11 -8 -17 4 -7 3 -9 -4 -5 -6 3 -13 2 -17 -4 -7
-12 -41 -14 -48 -2 -2 4 -2 1 0 -6 2 -8 -6 -16 -16 -19 -12 -3 -23 -17 -26
-35 -6 -26 -10 -29 -33 -24 -20 5 -23 4 -12 -3 12 -8 8 -13 -20 -25 -19 -8
-30 -15 -25 -16 6 0 3 -4 -5 -10 -9 -6 -17 -5 -21 2 -10 16 -42 1 -35 -17 3
-8 1 -15 -4 -15 -6 0 -10 8 -11 18 -1 11 -4 9 -9 -8 -5 -17 -8 -19 -9 -7 -1 9
-2 17 -4 17 -1 0 -17 -4 -35 -9 -24 -7 -32 -7 -31 2 1 7 1 21 0 31 -2 28 -14
11 -15 -20 -1 -36 -26 -45 -26 -9 0 14 5 36 11 47 7 12 7 23 2 27 -5 3 -6 17
-2 31 4 14 8 19 9 13 1 -7 4 -17 5 -23 1 -5 3 -17 4 -25 0 -8 5 -15 11 -15 5
0 7 7 4 15 -4 8 -2 15 4 15 10 0 22 -23 22 -41 0 -6 -4 -7 -10 -4 -5 3 -10 1
-10 -4 0 -19 30 -12 31 7 0 9 3 12 6 5 5 -13 32 -2 61 25 7 6 18 12 23 12 5 0
9 9 9 21 0 11 5 17 10 14 6 -3 10 -2 10 3 0 6 14 15 31 21 17 6 28 15 24 21
-4 6 7 15 24 21 17 6 28 15 25 20 -9 15 3 10 22 -8 14 -14 17 -15 12 -2 -4 10
4 19 24 28 18 8 27 18 24 27 -3 8 0 14 7 14 7 0 18 9 25 20 7 11 18 20 26 20
7 0 16 10 19 22 5 17 9 19 20 9 17 -13 47 -5 47 13 0 7 9 21 19 33 10 11 21
28 23 39 2 10 14 24 26 30 15 7 20 14 13 19 -6 3 -9 10 -6 15 3 5 6 25 7 44 1
19 5 33 10 30 5 -3 9 -20 8 -38z m-1020 -149 c0 -4 5 -5 10 -2 6 3 10 -1 10
-9 0 -8 10 -18 22 -22 13 -4 29 -14 36 -23 8 -9 11 -10 7 -3 -10 19 13 14 24
-5 5 -10 11 -16 13 -14 4 6 208 -93 208 -101 0 -4 -11 -5 -25 -2 -14 2 -25 0
-25 -6 0 -5 -4 -10 -10 -10 -5 0 -10 7 -10 15 0 13 -12 17 -36 14 -4 0 -10 5
-14 12 -5 7 -22 12 -39 11 -20 0 -29 3 -25 10 5 7 2 8 -6 3 -7 -4 -16 -2 -21
6 -6 9 -9 -1 -9 -29 0 -26 -4 -41 -10 -37 -5 3 -10 26 -10 51 0 28 -4 43 -10
39 -5 -3 -10 -2 -10 3 0 10 -90 68 -101 65 -3 -1 -6 4 -6 12 0 7 7 11 15 7 11
-4 10 1 -4 23 l-18 28 22 -14 c12 -8 22 -17 22 -22z"/>
<path d="M3338 1368 c-9 -7 -18 -25 -22 -39 -9 -40 -49 -93 -79 -103 -52 -19
-117 43 -117 111 0 31 -1 32 -37 26 -20 -4 -55 -12 -77 -18 l-41 -12 4 -59 c4
-67 17 -97 58 -136 59 -55 227 -77 302 -39 48 25 95 78 111 126 29 89 -42 190
-102 143z"/>
<path d="M4313 628 c-24 -18 -43 -38 -43 -45 0 -16 12 -17 28 -1 20 20 24 2
13 -58 -6 -32 -11 -77 -11 -101 0 -46 -23 -112 -43 -125 -9 -6 -9 -8 1 -8 39
0 182 135 182 172 0 21 -37 32 -80 26 -28 -4 -30 -2 -30 29 0 18 7 50 16 72
26 66 16 78 -33 39z"/>
<path d="M4747 596 c-4 -9 -2 -17 3 -17 44 -6 47 -12 37 -91 -5 -40 -18 -97
-28 -127 -10 -30 -17 -57 -14 -59 6 -7 137 48 193 81 69 42 67 59 -9 87 l-62
23 32 26 c17 14 31 29 31 33 0 12 -87 46 -133 53 -35 6 -45 4 -50 -9z"/>
<path d="M3889 543 c-54 -46 -85 -149 -63 -207 8 -22 43 -20 79 4 41 27 45 26
45 -19 0 -54 -35 -101 -97 -131 -29 -14 -52 -28 -53 -33 0 -9 50 3 69 17 39
30 103 100 112 124 13 34 19 132 8 132 -5 0 -30 -20 -56 -45 -51 -49 -76 -56
-93 -24 -9 16 -8 33 5 74 29 91 106 141 90 59 -7 -38 11 -46 39 -18 15 14 15
35 0 82 -6 21 -51 13 -85 -15z"/>
<path d="M4113 494 c-26 -13 -36 -28 -52 -77 -22 -65 -27 -117 -11 -117 5 0
29 25 52 56 l43 57 6 -29 c8 -43 28 -74 42 -68 18 9 81 84 70 84 -5 0 -20 -10
-32 -21 -28 -26 -40 -14 -42 41 -3 47 -2 52 6 73 6 14 2 17 -21 17 -16 0 -43
-8 -61 -16z"/>
</g>
</svg>
